<?xml version="1.0" encoding="UTF-8"?>
<svg id="Capa_1" data-name="Capa 1" xmlns="http://www.w3.org/2000/svg" viewBox="0 0 818 167.83">
  <defs>
    <style>
      .cls-1 {
        stroke-width: 0px;
      }
    </style>
  </defs>
  <path class="cls-1" d="m0,136.75V27.97h76.14v16.78H18.49v27.97h52.21v16.32H18.49v30.92h59.05v16.78H0Z"/>
  <path class="cls-1" d="m85.85,110.49h17.71c.62,8.86,8.24,13.52,18.34,13.52,9.32,0,14.3-3.57,14.3-9.95s-5.28-7.61-12.43-9.95l-10.88-3.57c-13.68-4.51-25.48-9.17-25.48-24.4s11.19-24.24,30.92-24.24,32.16,10.1,34.34,28.75h-17.4c-.93-9.32-7.62-13.67-17.1-13.67-8.08,0-12.74,3.42-12.74,9.01,0,6.37,7.15,8.08,13.05,10.1l9.95,3.27c16.32,5.44,26.11,10.41,26.11,25.17s-11.5,24.55-31.7,24.55c-22.53,0-35.9-10.57-36.99-28.59Z"/>
  <path class="cls-1" d="m166.26,167.83V54.39h14.76l1.86,13.52c5.44-9.63,16.16-16.01,29.22-16.01,21.75,0,37.14,17.71,37.14,43.2s-15.38,43.98-37.29,43.98c-11.81,0-21.6-5.28-27.19-13.83v42.58h-18.49Zm64.17-72.72c0-16.32-9.17-27.66-22.69-27.66s-23,11.19-23,27.19c0,16.94,9.48,28.9,23.15,28.9s22.53-11.65,22.53-28.44Z"/>
  <path class="cls-1" d="m257.01,113.91c.15-19.27,19.27-23.31,35.27-25.17,12.43-1.4,21.6-1.86,21.75-8.39-.15-8.08-6.37-13.36-16.94-13.36s-18.65,5.9-19.74,14.45h-18.49c1.71-17.4,17.25-29.52,38.54-29.52s34.5,12.12,34.5,29.68v37.29c0,2.33,1.24,3.57,4.04,3.57h4.51v14.3h-8.7c-8.39,0-13.52-3.42-14.92-9.63-.31-.78-.62-1.86-.78-2.8-4.82,8.86-13.83,14.14-27.81,14.14-18.96,0-31.39-9.17-31.23-24.55Zm57.03-8.08v-11.5c-3.11,4.82-11.03,5.9-19.73,6.99-10.26,1.24-18.8,2.64-18.8,11.34,0,7.15,5.75,11.34,16.47,11.34,12.59,0,22.07-7.15,22.07-18.18Z"/>
  <path class="cls-1" d="m344.78,94.95c0-27.04,18.18-43.04,42.11-43.04,22.53,0,37.76,13.83,39.31,34.34h-18.02c-1.71-11.34-9.79-18.65-21.45-18.65-13.98,0-23.31,10.57-23.31,27.35,0,18.03,10.25,28.44,23.93,28.44,11.19,0,18.96-7.15,20.82-18.96h18.02c-2.18,21.29-16.94,34.65-38.85,34.65-26.88,0-42.58-19.27-42.58-44.13Z"/>
  <path class="cls-1" d="m435.24,31.39c0-6.68,5.13-11.81,11.81-11.81s11.81,5.13,11.81,11.81-4.97,11.97-11.81,11.97-11.81-5.28-11.81-11.97Zm2.64,105.36V54.39h18.34v82.36h-18.34Z"/>
  <path class="cls-1" d="m467.71,94.79c0-26.88,18.18-42.89,42.27-42.89,26.57,0,42.11,18.65,42.11,42.89,0,27.81-17.56,44.29-42.11,44.29-26.73,0-42.27-18.8-42.27-44.29Zm65.73,0c0-16.32-9.17-27.19-23.46-27.19s-23.62,10.88-23.62,27.19c0,18.03,10.1,28.59,23.62,28.59,14.76,0,23.46-12.12,23.46-28.59Z"/>
  <g>
    <path class="cls-1" d="m602.28,136.75V27.97h20.2l45.07,68.45,7.75,13.44h1.1V27.97h18.65v108.77h-20.2l-45.07-68.45-7.78-13.44h-1.07v81.89s-18.64,0-18.64,0Z"/>
    <path class="cls-1" d="m709.23,82.05c0-32.95,20.82-56.41,54.23-56.41s54.54,22.22,54.54,56.41-20.98,57.03-54.54,57.03-54.23-22.38-54.23-57.03Zm89.82,0c0-24.24-13.83-39.63-35.58-39.63s-35.28,15.39-35.28,39.63,13.68,40.09,35.28,40.09,35.58-15.54,35.58-40.09Zm-71.07-67.6V0h70.96v14.45h-70.96Z"/>
  </g>
</svg>