<?xml version="1.0" encoding="UTF-8"?>
<svg id="Capa_1" data-name="Capa 1" xmlns="http://www.w3.org/2000/svg" viewBox="0 0 413.57 266.64">
  <defs>
    <style>
      .cls-1 {
        stroke-width: 0px;
      }
    </style>
  </defs>
  <path class="cls-1" d="m.01,262.17V53.63h38.73l86.41,131.22,14.86,25.77h2.1V53.63h35.75v208.54h-38.73L52.72,130.93l-14.92-25.77h-2.06v157H0h.01Z"/>
  <path class="cls-1" d="m205.04,157.3c0-63.16,39.92-108.14,103.97-108.14s104.56,42.6,104.56,108.14-40.22,109.34-104.56,109.34-103.97-42.9-103.97-109.34h0Zm172.19,0c0-46.47-26.51-75.97-68.22-75.97s-67.63,29.5-67.63,75.97,26.22,76.86,67.63,76.86,68.22-29.79,68.22-76.86ZM240.99,27.71V0h136.05v27.71h-136.05Z"/>
</svg>