<?xml version="1.0" encoding="UTF-8"?>
<svg id="Capa_1" data-name="Capa 1" xmlns="http://www.w3.org/2000/svg" viewBox="0 0 1845.97 266.64">
  <defs>
    <style>
      .cls-1 {
        stroke-width: 0px;
      }
    </style>
  </defs>
  <path class="cls-1" d="m0,262.17V53.63h38.73l86.41,131.22,14.86,25.77h2.1V53.63h35.75v208.54h-38.73L52.71,130.93l-14.92-25.77h-2.06v157s-35.74,0-35.74,0Z"/>
  <path class="cls-1" d="m205.03,157.3c0-63.16,39.92-108.14,103.97-108.14s104.56,42.6,104.56,108.14-40.22,109.34-104.56,109.34-103.97-42.9-103.97-109.34Zm172.19,0c0-46.47-26.51-75.97-68.22-75.97s-67.63,29.5-67.63,75.97,26.22,76.86,67.63,76.86,68.22-29.79,68.22-76.86ZM240.98,27.71V0h136.05v27.71h-136.05Z"/>
  <path class="cls-1" d="m494.61,218.37c.3-36.94,36.94-44.69,67.62-48.26,23.83-2.69,41.41-3.58,41.71-16.09-.3-15.5-12.21-25.62-32.47-25.62s-35.75,11.32-37.84,27.71h-35.45c3.28-33.37,33.07-56.61,73.88-56.61s66.14,23.24,66.14,56.91v71.49c0,4.47,2.38,6.86,7.74,6.86h8.64v27.41h-16.69c-16.08,0-25.92-6.56-28.6-18.47l-1.24-5.36h-4.13c-9.23,16.98-22.64,27.12-49.45,27.12-36.35,0-60.18-17.58-59.88-47.07Zm109.33-15.49v-22.04c-5.95,9.23-21.15,11.32-37.83,13.4-19.66,2.39-36.05,5.06-36.05,21.74,0,13.7,11.02,21.75,31.58,21.75,24.13,0,42.3-13.7,42.3-34.85Z"/>
  <path class="cls-1" d="m670.85,262.17V104.27h28.3l4.17,30.99h2.68c10.13-21.45,25.92-32.77,52.13-32.77h5.96v34.25h-5.96c-32.77,0-52.13,17.58-52.13,47.37v78.06h-35.16Z"/>
  <path class="cls-1" d="m769.28,182.02c0-51.84,34.85-82.52,80.74-82.52,43.2,0,72.39,26.51,75.37,65.84h-34.56c-3.27-21.74-18.77-35.75-41.11-35.75-26.81,0-44.69,20.26-44.69,52.43,0,34.56,19.66,54.52,45.88,54.52,21.45,0,36.34-13.7,39.92-36.35h34.56c-4.17,40.82-32.47,66.44-74.48,66.44-51.54,0-81.63-36.95-81.63-84.62Z"/>
  <path class="cls-1" d="m945.98,262.17V38.73h35.16v82.52s4.97,0,4.97,0c10.73-13.11,23.93-21.75,44.48-21.75,33.67,0,55.71,22.64,55.71,58.09v104.57h-35.15v-102.78c0-17.58-11.62-29.2-30.39-29.2-23.83,0-39.33,15.79-39.62,36.35v95.63h-35.16Z"/>
  <path class="cls-1" d="m1108.14,60.18c0-12.81,9.83-22.64,22.64-22.64s22.64,9.83,22.64,22.64-9.53,22.94-22.64,22.94-22.64-10.13-22.64-22.94Zm5.06,201.99V104.27h35.16v157.89h-35.16Z"/>
  <path class="cls-1" d="m1243.58,262.17c-34.26,0-52.73-16.98-52.73-48.27v-79.83h-27.71v-29.79h27.71v-53.92h35.16v53.92h40.81v29.79h-40.81v77.46c0,13.4,6.85,20.85,19.96,20.85h17.87v29.79h-20.25Z"/>
  <path class="cls-1" d="m1271.97,183.82c0-52.14,34.26-84.31,78.35-84.31s74.48,31.29,75.37,82.52v8.35h-118.57c2.38,27.7,19.66,46.47,46.47,46.47,18.17,0,31.88-8.94,37.24-24.73h34.26c-8.04,33.96-34.56,54.52-71.8,54.52-48.26,0-81.33-34.56-81.33-82.82Zm117.38-18.17c-4.47-22.64-18.47-36.35-39.02-36.35s-36.34,13.7-41.71,36.35h80.73Z"/>
  <path class="cls-1" d="m1437.78,182.02c0-51.84,34.85-82.52,80.74-82.52,43.2,0,72.39,26.51,75.37,65.84h-34.55c-3.28-21.74-18.77-35.75-41.11-35.75-26.81,0-44.68,20.26-44.68,52.43,0,34.56,19.66,54.52,45.88,54.52,21.45,0,36.34-13.7,39.92-36.35h34.55c-4.17,40.82-32.47,66.44-74.48,66.44-51.54,0-81.63-36.95-81.63-84.62Z"/>
  <path class="cls-1" d="m1681.72,262.17c-34.26,0-52.73-16.98-52.73-48.27v-79.83h-27.71v-29.79h27.71v-53.92h35.16v53.92h40.81v29.79h-40.81v77.46c0,13.4,6.85,20.85,19.96,20.85h17.87v29.79h-20.26Z"/>
  <path class="cls-1" d="m1714.29,211.81h33.96c1.19,16.98,15.79,25.92,35.16,25.92,17.87,0,27.41-6.86,27.41-19.07s-10.13-14.6-23.83-19.07l-20.85-6.86c-26.22-8.64-48.86-17.57-48.86-46.77s21.45-46.47,59.28-46.47,61.67,19.37,65.84,55.11h-33.37c-1.79-17.87-14.6-26.21-32.77-26.21-15.49,0-24.42,6.56-24.42,17.28,0,12.21,13.7,15.49,25.02,19.36l19.07,6.26c31.28,10.43,50.05,19.96,50.05,48.26s-22.05,47.07-60.77,47.07c-43.2,0-68.82-20.26-70.91-54.82Z"/>
</svg>